<?xml version="1.0" encoding="utf-8"?>
<!-- Generator: Adobe Illustrator 25.0.1, SVG Export Plug-In . SVG Version: 6.00 Build 0)  -->
<svg version="1.1" id="Camada_1" xmlns="http://www.w3.org/2000/svg" xmlns:xlink="http://www.w3.org/1999/xlink" x="0px" y="0px"
	 viewBox="0 0 785.9 460.7" style="enable-background:new 0 0 785.9 460.7;" xml:space="preserve">
<style type="text/css">
	.st0{fill:#FFFFFF;}
	.st1{fill-rule:evenodd;clip-rule:evenodd;fill:#FFFFFF;}
</style>
<g>
	
		<image style="overflow:visible;opacity:0.5;" width="816" height="492" xlink:href="80498540.png"  transform="matrix(1 0 0 1 -8 -8.33)">
	</image>
	<g>
		<g>
			<path class="st0" d="M0,371.2c1.2-7.4,2.2-13.7,3-19c0.8-5.2,1.4-9,1.7-11.2l9.2-67.8c0.9,0.2,1.9,0.3,2.9,0.4
				c1,0.1,2.1,0.1,3.3,0.1s2.3,0,3.3-0.1s2.1-0.2,3-0.4c5.1,11.5,10.5,22.8,16,33.9s11.2,22.2,17.1,33.2
				c5.7-10.6,11.2-21.5,16.7-32.7s10.8-22.6,16-34.4c1,0.2,2.1,0.3,3.2,0.4s2.2,0.1,3.4,0.1s2.4,0,3.5-0.1s2.1-0.2,3.1-0.4l8.2,68.6
				c0.9,7.6,1.7,13.5,2.4,17.8s1.4,8.2,2.2,11.5c-2.3-0.2-4.5-0.3-6.5-0.5c-2-0.1-3.9-0.2-5.7-0.2s-3.7,0.1-5.7,0.2s-4,0.3-6.1,0.5
				l-0.1-1.5c-0.4-10-0.8-16.3-1-18.6l-4.6-45.8c-5.4,10.3-10.7,20.9-16.1,31.8s-10.9,22.3-16.4,34.1c-0.4-0.1-0.7-0.2-1.1-0.2
				c-0.6-0.1-1.3-0.1-1.9-0.1c-0.6,0-1.2,0-1.8,0.1c-0.4,0-0.7,0.1-1,0.2c-5.6-11.7-11-22.8-16.3-33.4
				c-5.3-10.6-10.6-20.6-15.7-30.2l-3.4,29.8l-0.1,1.1c-1.7,15.5-2.6,26.4-2.7,32.7c-1.1-0.2-2.1-0.4-3.1-0.5
				c-0.9-0.1-1.8-0.2-2.7-0.2c-0.9,0-1.9,0.1-2.8,0.2C2.2,370.8,1.1,371,0,371.2z"/>
			<path class="st0" d="M131.8,323.7c0-16.4,4.9-29.2,14.8-38.4c9.9-9.3,23.5-13.9,41-13.9c16.8,0,29.8,4.4,39,13.2
				s13.8,21.4,13.7,37.7c0,15.4-4.9,27.8-14.8,37c-9.9,9.2-23,13.9-39.5,13.8c-17.4,0-30.8-4.3-40.2-12.8
				C136.4,351.8,131.7,339.6,131.8,323.7z M154.8,322.3c0,13.3,2.8,23.8,8.3,31.3c5.5,7.6,13.1,11.3,22.9,11.3
				c9.6,0,17.2-3.8,22.7-11.4c5.5-7.6,8.3-18,8.3-31.3c0-13.5-2.8-24-8.3-31.6s-13.1-11.4-22.7-11.4c-9.7,0-17.3,3.8-22.9,11.4
				S154.8,308.9,154.8,322.3L154.8,322.3z"/>
			<path class="st0" d="M257.6,371.2c0.5-6.9,0.8-14.3,1.1-22.2s0.4-16.6,0.4-25.9c0-8.8-0.1-17.4-0.4-25.7
				c-0.3-8.4-0.7-16.4-1.2-24.2c1.2,0.1,2.4,0.2,3.6,0.4s2.6,0.1,4.1,0.1s2.8,0,4.1-0.1s2.5-0.2,3.6-0.4
				c9.8,10.9,19.6,21.9,29.6,32.9c10,11,20.1,22,30.2,33v-16.9c0-3.1,0-9.2-0.1-18.2c-0.1-9-0.2-19.3-0.4-30.7
				c0.9,0.1,1.8,0.2,2.8,0.4s2,0.1,3.1,0.1s2.3,0,3.3-0.1s2-0.2,2.8-0.4c-0.4,4.1-0.7,10.3-0.9,18.8c-0.2,8.5-0.2,22.2-0.2,41v7.9
				c0,7.7,0.1,13.7,0.2,18.2c0.2,4.5,0.5,8.5,0.9,12c-1.1-0.2-2.2-0.4-3.2-0.5c-1-0.1-2-0.2-3-0.2c-1,0-2,0.1-3,0.2
				c-1,0.1-2.2,0.3-3.3,0.5c-8.9-10.2-18.4-20.9-28.6-32.1c-10.2-11.2-21.5-23.4-33.9-36.7v41.9c0,1.7,0,5,0.1,10s0.2,10.5,0.4,16.9
				c-1.2-0.2-2.3-0.4-3.3-0.5c-1-0.1-1.9-0.2-2.9-0.2c-0.9,0-1.9,0.1-2.8,0.2C259.8,370.8,258.7,371,257.6,371.2z"/>
			<path class="st0" d="M386.6,371.2c0.6-7.2,1-14.8,1.3-22.8c0.3-8,0.4-16.7,0.4-26.1c0-3.2,0-8.3-0.1-15.1s-0.2-14.5-0.4-23.1h-3
				c-4.4,0-8.6,0.1-12.6,0.4c-4,0.3-7.8,0.7-11.5,1.3c0-0.5,0.1-1.5,0.2-3s0.2-2.7,0.2-3.7s-0.1-2.3-0.3-4.1c0-0.8-0.1-1.3-0.1-1.8
				c7.8,0.4,14.7,0.6,20.8,0.8c6.1,0.2,11.9,0.2,17.3,0.2c5.5,0,11.3-0.1,17.4-0.2s13-0.4,20.7-0.8c-0.1,0.9-0.2,1.9-0.3,2.9
				s-0.1,2-0.1,3s0,2.1,0.1,3.2s0.2,2.3,0.3,3.5c-3.7-0.6-7.6-1-11.6-1.3c-4-0.3-8.2-0.4-12.6-0.4h-2.8c-0.2,3.6-0.4,7.6-0.5,11.9
				s-0.1,10.6-0.1,19c0,14.9,0.1,26.4,0.4,34.5c0.3,8.2,0.6,15.4,1.2,21.7c-2.3-0.2-4.5-0.4-6.5-0.5c-2-0.1-4-0.2-5.8-0.2
				s-3.7,0.1-5.6,0.2S388.7,371,386.6,371.2z"/>
			<path class="st0" d="M448.2,366.3c0.9-2.9,1.7-6.1,2.5-9.4s1.5-6.8,2.2-10.4h1.9c1.3,5.6,3.7,9.9,7.4,12.9
				c3.8,3.1,8.6,4.7,13.6,4.6c4.9,0,8.8-1.3,11.7-4c2.9-2.7,4.6-6.6,4.4-10.5c0.1-3-0.9-5.9-2.8-8.2c-1.9-2.3-6.4-5.4-13.7-9.3
				c-11.1-5.9-18.3-11.1-21.7-15.4c-3.3-4.3-5-9.7-5-16.1c0-8.7,3.1-15.7,9.3-21.1c6.2-5.4,14.3-8.1,24.5-8.1
				c4.2,0,8.3,0.5,12.3,1.6c3.8,1.1,7.4,2.8,10.7,5.1c-1,2.8-1.9,5.5-2.7,8.2c-0.8,2.6-1.5,5.2-2.1,7.6H499
				c-2.7-8.3-10.5-13.9-19.3-13.7c-4.2,0-7.6,1.2-10.2,3.5c-2.6,2.3-4,5.7-3.9,9.1c-0.1,3,0.9,5.9,2.9,8.1c1.9,2.2,6.2,5.1,12.8,8.5
				c1.4,0.8,3.5,1.9,6.3,3.2c7.7,3.8,12.5,6.7,14.6,8.9c2.5,2.5,4.4,5.5,5.7,8.8c1.3,3.4,1.9,7,1.9,10.6c0,9.7-3.3,17.5-9.8,23.4
				c-6.5,5.9-15.3,8.9-26.2,8.9c-5,0.1-10-0.5-14.9-1.7C455,370.5,451.4,368.7,448.2,366.3z"/>
			<path class="st0" d="M528.9,371.2c0.6-5.1,1-10.8,1.3-17.4c0.3-6.5,0.4-17,0.4-31.6v-7.2c0-10.8-0.1-19.3-0.4-25.4
				c-0.3-6.1-0.7-11.6-1.3-16.5c4.5,0.2,9.1,0.3,13.9,0.4s9.7,0.1,14.9,0.1c5.2,0,10,0,14.3-0.1s8.4-0.2,12.2-0.4
				c-0.2,1.6-0.4,2.8-0.5,3.7s-0.1,1.7-0.1,2.5s0,1.5,0.1,2.3s0.2,2,0.5,3.7c-7.1-0.5-13.3-0.8-18.6-1.1c-5.2-0.3-9.8-0.4-13.7-0.5
				c-0.2,1.7-0.3,3.6-0.4,5.5s-0.1,4.9-0.1,8.7v6.9l0.1,9.7c3-0.1,8.2-0.3,15.5-0.5s12.8-0.5,16.6-0.6c-0.2,1.5-0.4,2.6-0.5,3.5
				s-0.1,1.7-0.1,2.6c0.1,1.9,0.2,3.8,0.5,5.7l0.1,0.4c-8.8-0.5-15.5-0.9-20.1-1c-4.6-0.2-8.6-0.3-12.1-0.3v17.2
				c0,6.2,0,10.5,0.1,13c0.1,2.5,0.2,4.6,0.4,6.2c4.4-0.1,9.3-0.4,14.6-0.7c5.4-0.4,11.2-0.8,17.5-1.4c-0.1,0.9-0.2,1.9-0.3,2.8
				s-0.1,1.9-0.1,2.8s0.1,2.3,0.2,3.9s0.2,2.6,0.2,3c-9.6-0.3-16.9-0.5-22.1-0.6c-5.1-0.1-9.3-0.1-12.5-0.1c-4.3,0-8.1,0.1-11.5,0.2
				C534.9,370.9,531.8,371.1,528.9,371.2z"/>
			<path class="st0" d="M602.7,371.2c0.5-6.9,0.8-14.3,1.1-22.2s0.4-16.6,0.4-25.9c0-8.8-0.1-17.4-0.4-25.7
				c-0.3-8.4-0.7-16.4-1.2-24.2c1.2,0.1,2.4,0.2,3.7,0.4s2.6,0.1,4.1,0.1s2.8,0,4.1-0.1s2.5-0.2,3.6-0.4
				c9.8,10.9,19.6,21.9,29.6,32.9c10,11,20.1,22,30.2,33v-16.9c0-3.1-0.1-9.2-0.2-18.2c-0.1-9-0.2-19.3-0.4-30.7
				c0.9,0.1,1.8,0.2,2.8,0.4s2,0.1,3.1,0.1s2.3,0,3.3-0.1s2-0.2,2.8-0.4c-0.4,4.1-0.7,10.3-0.9,18.8c-0.2,8.5-0.2,22.2-0.2,41v7.9
				c0,7.7,0.1,13.7,0.2,18.2c0.2,4.5,0.5,8.5,0.9,12c-1.1-0.2-2.2-0.4-3.2-0.5c-1-0.1-2-0.2-3-0.2c-1,0-2,0.1-3,0.2
				c-1.1,0.1-2.2,0.3-3.3,0.5c-8.9-10.2-18.5-20.9-28.7-32.1c-10.2-11.2-21.5-23.4-33.9-36.7v41.9c0,1.7,0,5,0.1,10
				s0.2,10.5,0.4,16.9c-1.2-0.2-2.3-0.4-3.3-0.5c-1-0.1-1.9-0.2-2.9-0.2c-0.9,0-1.9,0.1-2.8,0.2C604.9,370.8,603.8,371,602.7,371.2z
				"/>
			<path class="st0" d="M732.5,330.4c-4.5-8.3-9.4-17-14.5-26.2s-11-19.5-17.5-31c2,0.2,4.1,0.3,6.3,0.4c2.2,0.1,4.6,0.1,7.1,0.1
				c2.4,0,4.7,0,6.9-0.1c2.2-0.1,4.3-0.2,6.2-0.4c3.4,7.6,7,15,10.7,22.4s7.6,14.6,11.7,21.7c4.1-7.1,7.9-14.3,11.4-21.6
				c3.5-7.3,6.7-14.8,9.7-22.4c1.2,0.2,2.4,0.3,3.6,0.4s2.6,0.1,4.1,0.1s2.7,0,4-0.1s2.5-0.2,3.6-0.4c-5.7,8.7-11.2,17.7-16.4,26.8
				c-5.2,9.2-10.2,18.5-14.9,28.1c-0.2,2.6-0.3,5.1-0.4,7.7s-0.1,5.1-0.1,7.8c0,4.2,0.1,8.5,0.3,13.2s0.5,9.5,0.8,14.5
				c-2.2-0.2-4.3-0.4-6.2-0.5c-2-0.1-3.8-0.2-5.6-0.2s-3.7,0.1-5.7,0.2s-4.1,0.3-6.3,0.5c0.5-4.9,0.8-9.7,1-14.5s0.3-9.6,0.3-14.4
				c0-1.5,0-3.1,0-4.8S732.7,333.5,732.5,330.4z"/>
			<path class="st0" d="M205.4,457.1c-1.8,1.3-3.8,2.2-5.9,2.6c-2.7,0.6-5.4,0.9-8.1,0.9c-7,0-12.4-1.9-16.2-5.8
				c-3.8-3.9-5.7-9.4-5.7-16.4c0-6.8,2.1-12.2,6.3-16.2s9.9-6.1,17-6.1c2.4,0,4.8,0.2,7.1,0.8c2.2,0.5,4.4,1.2,6.4,2.3
				c-0.3,1-0.6,2.1-0.8,3.1c-0.2,1-0.3,1.9-0.3,2.9c-1.3-2.1-3.1-3.9-5.3-5.1c-2.3-1.1-4.8-1.7-7.4-1.6c-5.3,0-9.4,1.8-12.3,5.3
				c-2.9,3.5-4.4,8.4-4.4,14.8c0,6.1,1.4,11,4.3,14.5c2.9,3.5,6.9,5.3,11.9,5.3c2.4,0,4.8-0.5,7-1.4c2.4-1,4.7-2.3,6.7-3.9
				L205.4,457.1z"/>
			<path class="st0" d="M251.3,459.8c0.2-2.9,0.3-6.3,0.4-10s0.1-8.1,0.1-13.2c0-5.3,0-9.3-0.1-12.2c-0.1-2.9-0.2-5.4-0.4-7.5
				c0.5,0.1,1,0.1,1.5,0.2c0.5,0,1,0.1,1.6,0.1s1,0,1.5-0.1s1-0.1,1.4-0.2c-0.2,1.5-0.3,3.1-0.3,4.6c-0.1,2-0.1,5.7-0.1,11.3v2.5
				l5,0h16l5,0v-2.5c0-3,0-5.7-0.1-8.4s-0.2-5.2-0.4-7.6c0.5,0.1,0.9,0.1,1.4,0.2c0.5,0,1,0.1,1.6,0.1s1.1,0,1.6-0.1s1-0.1,1.5-0.2
				c-0.2,2.6-0.3,5.3-0.4,8.4s-0.1,6.8-0.1,11.4c0,4,0,8,0.1,11.8s0.2,7.6,0.4,11.3c-0.5-0.1-1-0.1-1.5-0.2s-1.1-0.1-1.6-0.1
				s-1,0-1.5,0.1c-0.5,0-0.9,0.1-1.4,0.2c0.2-2.6,0.3-5.4,0.4-8.6s0.1-6.6,0.1-10.1v-3c-2.2-0.1-4.3-0.1-6.5-0.2s-4.3,0-6.5,0
				s-4.3,0-6.5,0s-4.3,0.1-6.5,0.1v3c0,6.7,0,11.2,0.1,13.5s0.2,4,0.3,5.2c-0.5-0.1-1-0.1-1.5-0.2c-0.5,0-1.1-0.1-1.6-0.1
				s-1,0-1.5,0.1C252.2,459.7,251.8,459.8,251.3,459.8z"/>
			<path class="st0" d="M331.3,459.8c3.9-8.6,7.5-16.4,10.6-23.5s6.1-13.8,8.8-20.2h1.2c2.9,7.3,5.9,14.6,9,21.9
				c3,7.3,6.1,14.5,9.2,21.8c-0.5-0.1-1.1-0.1-1.6-0.2s-1-0.1-1.5-0.1s-1,0-1.5,0.1s-1.1,0.1-1.7,0.2c-0.7-2.3-1.5-4.6-2.5-7
				s-1.9-4.8-2.9-7.3l-1.1-2.5c-0.9,0-1.9-0.1-3-0.1s-2.6,0-4.8,0s-3.8,0-4.8,0s-2,0-3,0.1c-1,2.3-2,4.8-3.1,7.5
				c-1,2.7-2.2,5.8-3.4,9.3c-0.3-0.1-0.7-0.2-1-0.2c-0.3,0-0.7-0.1-1-0.1c-0.3,0-0.7,0-1,0.1C332,459.7,331.7,459.7,331.3,459.8z
				 M343,440.3h1.9c1.1,0,2,0,2.8,0h3.8h4.7l-1.1-2.8c-0.2-0.5-0.6-1.5-1.3-3.2s-2.1-4.9-4.1-9.6L343,440.3z"/>
			<path class="st0" d="M413.9,459.8c0.1-3.7,0.2-7.3,0.3-10.8s0.1-7.1,0.1-10.6c0-3.9,0-7.6-0.1-11.1c-0.1-3.5-0.2-7-0.3-10.4
				c0.5,0.1,0.9,0.1,1.4,0.2c0.5,0,1,0.1,1.6,0.1c0.5,0,1,0,1.5-0.1c0.5,0,0.9-0.1,1.4-0.2c-0.2,4.1-0.3,8-0.4,11.8
				s-0.1,7.3-0.1,10.5s0,6.5,0.1,9.4s0.1,5.6,0.3,8.3h1.5h2.8c2.7,0,5.2-0.1,7.3-0.2c1.9-0.1,3.7-0.4,5.5-0.7c0,0.2,0,0.5,0,0.9
				s0,0.8,0,1s0,0.5,0,0.9c0,0.3,0,0.7,0,1c-3.7-0.1-6.8-0.1-9.2-0.1s-4.2,0-5.4,0c-1.5,0-2.9,0-4.3,0S415.1,459.8,413.9,459.8z"/>
			<path class="st0" d="M482.4,459.8c0.2-2.6,0.3-5.7,0.4-9.2s0.1-7.8,0.1-12.7c0-4.5,0-8.5-0.1-11.9c-0.1-3.4-0.2-6.4-0.4-9.1
				c0.9,0,1.8,0.1,2.9,0.1s2.6,0,4.9,0c2.9,0,5.4,0,7.6,0l6.8-0.1c0,0.2,0,0.5,0,0.9s0,0.7,0,1s0,0.5,0,0.9s0,0.7,0,0.9
				c-2.4-0.2-4.8-0.4-7.3-0.5s-5-0.1-7.6-0.1h-1.5c0,2.4,0,4.8,0,7s0,4.3,0,6.3v2.5h1.1c1.9,0,4,0,6.3-0.1s4.8-0.2,7.4-0.4
				c0,0.5-0.1,0.8-0.1,1.1s0,0.6,0,0.8s0,0.5,0,0.7s0.1,0.6,0.1,1c-1.2-0.2-2.5-0.3-3.8-0.4c-1.5-0.1-4.2-0.1-8.1-0.1H488v3
				c0,3.6,0,6.5,0,8.7s0,4.4,0,6.6h1.6c1.8,0,4-0.1,6.6-0.2c2.6-0.1,5.4-0.3,8.5-0.5c0,0.2,0,0.5,0,0.9s0,0.7,0,1s0,0.5,0,0.9
				s0,0.7,0,0.9c-1.2,0-2.5-0.1-4-0.1s-3.7,0-6.8,0s-5.5,0-7.1,0S483.8,459.8,482.4,459.8z M488,412.7l8.9-9.2
				c0.5-0.5,1.1-1,1.7-1.5c0.4-0.2,0.8-0.4,1.2-0.4c0.6,0,1.2,0.2,1.6,0.6c0.4,0.4,0.7,1,0.6,1.6c0,0.5-0.2,0.9-0.5,1.3
				c-0.4,0.5-0.9,0.9-1.4,1.2l-10.1,6.3H488z"/>
			<path class="st0" d="M548.2,457.3c0.4-1.1,0.7-2.2,0.9-3.3c0.2-1.1,0.4-2.2,0.5-3.3c0.8,2.2,2.2,4.1,4.1,5.5c1.8,1.3,4,2,6.2,2
				c2.4,0.1,4.8-0.8,6.5-2.5c1.7-1.8,2.6-4.2,2.5-6.7c0.1-1.7-0.4-3.3-1.4-4.7c-1.3-1.5-3-2.6-4.9-3.2l-5.1-2.1
				c-2.4-0.9-4.6-2.4-6.3-4.3c-1.4-1.8-2.1-4-2-6.2c-0.1-3.3,1.2-6.5,3.7-8.7c2.6-2.3,6.1-3.5,9.6-3.4c1.6,0,3.3,0.2,4.9,0.6
				c1.6,0.4,3.2,1,4.7,1.7c-0.3,0.7-0.6,1.4-0.9,2.2s-0.6,1.7-0.8,2.6c-1-1.5-2.3-2.7-3.8-3.6c-1.5-0.8-3.2-1.2-4.8-1.2
				c-2.1-0.1-4.1,0.7-5.5,2.1c-1.4,1.6-2.1,3.6-2,5.7c-0.1,1.6,0.5,3.2,1.5,4.4c1.4,1.5,3,2.6,4.9,3.3l5.1,2.2
				c2.5,0.9,4.7,2.4,6.4,4.5c1.3,1.9,2,4.2,1.9,6.5c0.1,3.7-1.4,7.3-4.1,9.9c-2.7,2.5-6.4,3.7-10.9,3.7c-2,0-3.9-0.3-5.8-0.9
				C551.3,459.3,549.7,458.4,548.2,457.3z"/>
			<path class="st1" d="M474.6,98.4c-45.4-30.7-53-49.2-84-75.5c-38.6-32.8-58.5-26.1-81-6.2C272.4,50.1,52,242.7,61.7,247.1
				c80.5-56.8,172-140.8,240.2-196.4c13.2-10.8,27.8-28.4,44.2-19.6c12.6,6.4,18.1,19.6,6.1,35.7c-11.1,14.6,7.6,34.2,14,52.1
				c7.9,21.7-37.8,61.5-103.3,101c32.5-4.4,70-24.9,115.9-53.9c15.8-10,24-3.5,25.8,11.1c2.3,17.3,10.5,12,28.7-0.6
				c39.5-29,81.3-80.5,91-70c46.8,36.3-10.2,29.3,33.9,55.6c45.7,27.2,25.2,36-5,67c29-7,36.3-15.2,53.8-26.9
				c10.2-7,21.9-7,33.1-1.5c20.8,10.8,69.9,38.9,79.3,38.1c-58.8-51.2-119.4-105.3-170.6-153.3C519.9,60.3,512.3,77.9,474.6,98.4
				L474.6,98.4z"/>
		</g>
	</g>
</g>
</svg>
